<svg xmlns="http://www.w3.org/2000/svg" width="91.851" height="117.358" viewBox="0 0 91.851 117.358">
  <g id="btn_close_のコピー" data-name="btn_close のコピー" transform="translate(-459.524 -169.138)">
    <path id="パス_2" data-name="パス 2" d="M-19.64-11.48-19.88,0h3.66V-16.08h-5.12l-2.9,11.44-2.9-11.44h-5.1V0h3.66l-.24-11.48L-25.8,0h3.14Zm9.8,8.28V-6.66h7.6V-9.74h-7.6v-3.14H-1.1v-3.2H-13.84V0h13V-3.2ZM15.46,0V-16.08h-4L11.6-5.94,4.56-16.08H.7V0h4L4.56-10.14,11.46,0Zm12.9-16.08V-6.04A3.074,3.074,0,0,1,25-2.94c-1.5,0-3.4-.74-3.4-3.1V-16.08h-4v9.84C17.6-.6,21.84.44,24.92.44c4.22,0,7.44-1.74,7.44-6.68v-9.84Z" transform="translate(505.843 286.056)"/>
    <path id="btn_close" d="M487.51,257.378a46.155,46.155,0,0,1-24.52-24.437,45.386,45.386,0,0,1-3.467-14.085h8.429a37.7,37.7,0,0,0,74.992,0h8.43a45.7,45.7,0,0,1-13.341,28.681,46.251,46.251,0,0,1-50.524,9.841ZM484,233v-8h43v8Zm0-14v-8h43v8Zm58.945-7.728a37.7,37.7,0,0,0-74.992,0h-8.429a45.7,45.7,0,0,1,13.341-28.682,46.149,46.149,0,0,1,75.044,14.6,45.379,45.379,0,0,1,3.467,14.085ZM484,205v-8h43v8Z"/>
  </g>
</svg>
