<svg xmlns="http://www.w3.org/2000/svg" width="203.294" height="13.216" viewBox="0 0 203.294 13.216">
  <path id="パス_1" data-name="パス 1" d="M-101.339-11.032V0h2.3V-11.032Zm6.706,2.982h-2.3V0h2.3Zm0-2.982h-2.3v1.974h2.3ZM-84.3,0V-.182a1.318,1.318,0,0,1-.392-.924V-5.74c0-2.282-2.562-2.6-3.766-2.6a6.661,6.661,0,0,0-3.234.756,2.491,2.491,0,0,0-1.036,1.946h2.212c0-.392.014-1.078,2.1-1.078.574,0,1.47.042,1.47.952,0,.672-.462.728-2.422,1.008-2.044.28-3.766.518-3.766,2.52,0,2.394,2.156,2.548,3.122,2.548a3.591,3.591,0,0,0,3.066-1.26A1.96,1.96,0,0,0-86.709,0Zm-2.646-3.052A2.139,2.139,0,0,1-89.173-1.4c-.084,0-1.6,0-1.6-.91,0-.8.756-.91,2.226-1.134a4.377,4.377,0,0,0,1.6-.406Zm3.7-5V0H-81V-3.6c0-1.974,1.736-2.422,2.828-2.422h.91V-8.344h-.812c-2.3,0-2.856,1.26-3.08,1.764l-.042-1.47Zm16.324,5.978h-5.824A7.737,7.737,0,0,1-71.323-3.15a20.492,20.492,0,0,0,3.682-2.9,3.315,3.315,0,0,0,.616-1.918c0-1.61-1.162-3.374-4.368-3.374a4.75,4.75,0,0,0-3.878,1.568,4.214,4.214,0,0,0-.868,2.786h2.59c.056-.91.252-2.254,2.142-2.254.728,0,1.848.266,1.848,1.316,0,.588,0,.91-2.254,2.45C-74.781-3.458-76.153-2.45-76.335,0h9.408Zm7.574,3.122h-7v.7h7Zm2.968-2.03A2.627,2.627,0,0,0-53.809.308C-51.387.308-50.2-1.6-50.2-4c0-2.128-.966-4.34-3.766-4.34a2.723,2.723,0,0,0-2.59,1.414l-.042-1.12h-2.044V1.876h2.254Zm1.9-.56c-1.428,0-1.876-1.218-1.876-2.464,0-1.218.42-2.478,1.876-2.478S-52.619-5.222-52.619-4-53.039-1.54-54.481-1.54Zm5.446-6.51V0h2.254V-3.6c0-1.974,1.736-2.422,2.828-2.422h.91V-8.344h-.812c-2.3,0-2.856,1.26-3.08,1.764l-.042-1.47Zm14.154-.476-.112.6a1.719,1.719,0,0,0-1.554-.84c-1.876,0-3.22,1.54-3.22,3.752,0,1.652.84,2.744,2.464,2.744a2.29,2.29,0,0,0,1.9-.966,1.406,1.406,0,0,0,1.484.966c1.526,0,3.192-1.246,3.192-3.724a5.35,5.35,0,0,0-5.628-5.348,5.788,5.788,0,0,0-6.02,5.88c0,3.416,2.548,5.768,6.314,5.768a7.458,7.458,0,0,0,4.746-1.582l-1.036-1.134a5.707,5.707,0,0,1-3.6,1.246c-2.576,0-4.578-1.554-4.578-4.242a4.209,4.209,0,0,1,4.284-4.438,4.087,4.087,0,0,1,3.108,1.316Zm1.806.07A3.723,3.723,0,0,1-32.291-6.1c0,1.134-.476,2.366-1.064,2.366-.322,0-.406-.364-.406-.56a4.548,4.548,0,0,1,.07-.686Zm-3.934,4.872c-.854,0-.952-.952-.952-1.386,0-1.162.616-2.492,1.624-2.492.77,0,.924.826.924,1.386C-35.413-5.11-35.749-3.584-37.009-3.584Zm15.75-1.6c-.364-2.142-1.96-3.164-4.116-3.164a4.218,4.218,0,0,0-4.508,4.368c0,2.828,1.96,4.284,4.48,4.284,2.128,0,3.962-1.064,4.242-3.318h-2.366c-.1.546-.252,1.582-1.9,1.582-1.708,0-2.1-1.54-2.1-2.632,0-.98.28-2.562,2.114-2.562A1.674,1.674,0,0,1-23.583-5.18Zm7.49-2.87-2.156,5.166-2.17-5.166h-2.422l3.248,7.406a1.127,1.127,0,0,1-1.134.7h-1.05V1.778a11.862,11.862,0,0,0,1.456.1A3.239,3.239,0,0,0-14.721-.1l3.388-7.952Zm5.6-2.982h-2.254V0h2.044l.042-1.12A2.713,2.713,0,0,0-5.747.308c2.8,0,3.766-2.226,3.766-4.34,0-2.422-1.19-4.312-3.612-4.312A2.625,2.625,0,0,0-8.169-7.07Zm1.9,4.522C-4.823-6.51-4.4-5.264-4.4-4.046s-.42,2.478-1.862,2.478-1.876-1.26-1.876-2.478C-8.141-5.292-7.693-6.51-6.265-6.51ZM7.609-3.542a5.563,5.563,0,0,0-.938-3.15,4.208,4.208,0,0,0-3.5-1.652A4.052,4.052,0,0,0-1.113-4.018,4.06,4.06,0,0,0,3.283.308,4.5,4.5,0,0,0,6.7-1.05a3.046,3.046,0,0,0,.742-1.358h-2.3A1.767,1.767,0,0,1,3.283-1.372a1.979,1.979,0,0,1-2.114-2.17ZM1.2-4.97A2.04,2.04,0,0,1,3.213-6.664a2.1,2.1,0,0,1,2.1,1.694ZM8.771-8.05V0h2.254V-3.6c0-1.974,1.736-2.422,2.828-2.422h.91V-8.344h-.812c-2.3,0-2.856,1.26-3.08,1.764l-.042-1.47ZM24.311,0V-.182a1.318,1.318,0,0,1-.392-.924V-5.74c0-2.282-2.562-2.6-3.766-2.6a6.661,6.661,0,0,0-3.234.756,2.491,2.491,0,0,0-1.036,1.946h2.212c0-.392.014-1.078,2.1-1.078.574,0,1.47.042,1.47.952,0,.672-.462.728-2.422,1.008-2.044.28-3.766.518-3.766,2.52C15.477.154,17.633.308,18.6.308a3.591,3.591,0,0,0,3.066-1.26A1.96,1.96,0,0,0,21.9,0ZM21.665-3.052A2.139,2.139,0,0,1,19.439-1.4c-.084,0-1.6,0-1.6-.91,0-.8.756-.91,2.226-1.134a4.377,4.377,0,0,0,1.6-.406ZM33.9-8.3a3.819,3.819,0,0,0-.574-.042,2.3,2.3,0,0,0-1.456.518,4.973,4.973,0,0,0-2.632-.518c-.7,0-3.584,0-3.584,2.338a1.964,1.964,0,0,0,.812,1.638c-.336.168-.966.448-.966,1.148a1.064,1.064,0,0,0,.672.98A1.849,1.849,0,0,0,25.067-.5c0,2.226,2.982,2.38,4.1,2.38a8.92,8.92,0,0,0,3.346-.546A2.338,2.338,0,0,0,33.789-.714c0-1.988-2.1-2.212-2.478-2.254A32.458,32.458,0,0,1,27.7-3.346c-.07-.028-.238-.1-.238-.266a.3.3,0,0,1,.2-.28,7.661,7.661,0,0,0,1.68.154c3.612,0,3.528-2,3.5-2.758.182-.014.252-.028.336-.028a1.771,1.771,0,0,1,.728.2ZM29.267-7c.756,0,1.288.364,1.288.938s-.5.994-1.316.994c-.742,0-1.288-.35-1.288-.952C27.951-6.482,28.259-7,29.267-7Zm-1.26,5.4a20.108,20.108,0,0,1,2.646.154c.35.07.784.266.784.8,0,.924-1.218.994-1.834.994-.406,0-2.184,0-2.184-1.092A1.023,1.023,0,0,1,28.007-1.6ZM43.379-3.542a5.563,5.563,0,0,0-.938-3.15,4.208,4.208,0,0,0-3.5-1.652,4.052,4.052,0,0,0-4.284,4.326,4.06,4.06,0,0,0,4.4,4.326A4.5,4.5,0,0,0,42.469-1.05a3.046,3.046,0,0,0,.742-1.358h-2.3a1.767,1.767,0,0,1-1.862,1.036,1.979,1.979,0,0,1-2.114-2.17ZM36.967-4.97a2.04,2.04,0,0,1,2.016-1.694,2.1,2.1,0,0,1,2.1,1.694Zm7.56-3.08V0h2.254V-4.746A1.69,1.69,0,0,1,48.6-6.51a1.713,1.713,0,0,1,1.834,1.764V0h2.254V-5.082A3.106,3.106,0,0,0,49.5-8.344a3.245,3.245,0,0,0-2.716,1.218l-.042-.924ZM59.3-6.664V-8.05H57.5V-10.3h-2.3V-8.05H53.725v1.386h1.484v4.62c0,1.582,1.078,2.352,2.772,2.352.434,0,.84-.028,1.316-.07V-1.526h-.672c-.644,0-1.12-.112-1.12-.91V-6.664Zm1.288,4.13V0h2.464V-2.534Zm12.5-2.646c-.364-2.142-1.96-3.164-4.116-3.164a4.218,4.218,0,0,0-4.508,4.368c0,2.828,1.96,4.284,4.48,4.284,2.128,0,3.962-1.064,4.242-3.318H70.819c-.1.546-.252,1.582-1.9,1.582-1.708,0-2.1-1.54-2.1-2.632,0-.98.28-2.562,2.114-2.562A1.674,1.674,0,0,1,70.763-5.18ZM78.421.308a4.066,4.066,0,0,0,4.354-4.326,4.052,4.052,0,0,0-4.354-4.326,4.063,4.063,0,0,0-4.368,4.326A4.07,4.07,0,0,0,78.421.308Zm2-4.326c0,1.47-.7,2.59-2,2.59-1.4,0-2.016-1.26-2.016-2.548,0-1.708.84-2.646,2.016-2.646C79.723-6.622,80.423-5.488,80.423-4.018Zm3.752,1.484V0h2.464V-2.534ZM89.621-8.05V-.8c0,.364-.056.84-.826.84h-.924V1.834c.084,0,.8.042.868.042,1.274,0,3.136-.336,3.136-2.2V-8.05Zm2.254-2.982H89.621v1.974h2.254ZM95.767-.98A2.627,2.627,0,0,0,98.343.308c2.422,0,3.612-1.9,3.612-4.312,0-2.128-.966-4.34-3.766-4.34A2.723,2.723,0,0,0,95.6-6.93l-.042-1.12H93.513V1.876h2.254Zm1.9-.56c-1.428,0-1.876-1.218-1.876-2.464,0-1.218.42-2.478,1.876-2.478S99.533-5.222,99.533-4,99.113-1.54,97.671-1.54Z" transform="translate(101.339 11.34)" fill="#fff"/>
</svg>
