<?xml version="1.0" encoding="utf-8"?>
<!-- Generator: Adobe Illustrator 24.3.0, SVG Export Plug-In . SVG Version: 6.00 Build 0)  -->
<svg version="1.1" id="レイヤー_1" xmlns="http://www.w3.org/2000/svg" xmlns:xlink="http://www.w3.org/1999/xlink" x="0px"
	 y="0px" viewBox="0 0 320 320" style="enable-background:new 0 0 320 320;" xml:space="preserve">
<style type="text/css">
	.st0{fill:#FFFFFF;}
</style>
<g>
	<path class="st0" d="M160,0C71.6,0,0,71.6,0,160s71.6,160,160,160s160-71.6,160-160S248.4,0,160,0z M243.8,204
		c-22.4,25.8-72.5,57.2-83.9,62c-11.4,4.8-9.7-3.1-9.3-5.8c0.3-1.6,1.5-9.1,1.5-9.1c0.4-2.7,0.7-7-0.3-9.7c-1.2-3-5.9-4.5-9.4-5.3
		c-51.3-6.8-89.3-42.7-89.3-85.5C53.1,102.9,101,64,159.9,64c58.9,0,106.8,38.9,106.8,86.7C266.7,169.8,259.3,187,243.8,204
		L243.8,204z"/>
	<path class="st0" d="M231.2,127.6h-30h0c-1.1,0-2,0.9-2,2v0v0v46.5v0v0c0,1.1,0.9,2,2,2h0h30c1.1,0,2-0.9,2-2v-7.6c0-1.1-0.9-2-2-2
		h-20.4v-7.9h20.4c1.1,0,2-0.9,2-2v-7.6c0-1.1-0.9-2-2-2h-20.4v-7.9h20.4c1.1,0,2-0.9,2-2v-7.6C233.2,128.5,232.3,127.6,231.2,127.6
		z"/>
	<path class="st0" d="M120.2,166.6H99.8v-37c0-1.1-0.9-2-2-2h-7.6c-1.1,0-2,0.9-2,2v46.6v0v0c0,1.1,0.9,2,2,2h0h30c1.1,0,2-0.9,2-2
		v-7.6C122.2,167.5,121.3,166.6,120.2,166.6z"/>
	<path class="st0" d="M138.2,127.6h-7.6c-1.1,0-2,0.9-2,2v46.6c0,1.1,0.9,2,2,2h7.6c1.1,0,2-0.9,2-2v-46.6
		C140.3,128.5,139.4,127.6,138.2,127.6z"/>
	<path class="st0" d="M189.8,127.6h-7.6c-1.1,0-2,0.9-2,2v27.7l-21.3-28.8c0-0.1-0.1-0.1-0.2-0.2c0,0,0,0,0,0c0,0-0.1-0.1-0.1-0.1
		c0,0,0,0,0,0c0,0-0.1-0.1-0.1-0.1c0,0,0,0-0.1,0c0,0-0.1-0.1-0.1-0.1c0,0,0,0-0.1,0c0,0-0.1,0-0.1-0.1c0,0,0,0-0.1,0
		c0,0-0.1,0-0.1-0.1c0,0,0,0-0.1,0c0,0-0.1,0-0.1,0c0,0,0,0-0.1,0c0,0-0.1,0-0.1,0c0,0-0.1,0-0.1,0c0,0-0.1,0-0.1,0c0,0-0.1,0-0.1,0
		c0,0,0,0-0.1,0h-7.5c-1.1,0-2,0.9-2,2v46.6c0,1.1,0.9,2,2,2h7.6c1.1,0,2-0.9,2-2v-27.7l21.4,28.8c0.1,0.2,0.3,0.4,0.5,0.5
		c0,0,0,0,0,0c0,0,0.1,0.1,0.1,0.1c0,0,0,0,0.1,0c0,0,0.1,0,0.1,0c0,0,0.1,0,0.1,0c0,0,0,0,0.1,0c0,0,0.1,0,0.1,0c0,0,0,0,0,0
		c0.2,0,0.3,0.1,0.5,0.1h7.5c1.1,0,2-0.9,2-2v-46.6C191.8,128.5,190.9,127.6,189.8,127.6z"/>
</g>
</svg>
