<svg xmlns="http://www.w3.org/2000/svg" width="91.851" height="117.357" viewBox="0 0 91.851 117.357">
  <g id="btn_close" transform="translate(-459.524 -18.139)">
    <path id="パス_1" data-name="パス 1" d="M-22.64-10.26a6.46,6.46,0,0,0-6.82-6.26c-4.58,0-7.46,3.68-7.46,8.62,0,5.02,3.02,8.34,7.44,8.34A6.5,6.5,0,0,0-23.9-2.3a7.059,7.059,0,0,0,1.34-3.8h-4c-.06.66-.28,3.18-2.92,3.18-3.06,0-3.26-3.72-3.26-4.86,0-2.16.4-5.36,3.24-5.36,1.34,0,2.52.7,2.86,2.88ZM-8.98,0V-3.2h-7.76V-16.08h-4V0ZM7.62-8.04c0-5.02-3.36-8.48-7.8-8.48-4.4,0-7.8,3.42-7.8,8.48,0,5.08,3.4,8.48,7.8,8.48C4.26.44,7.62-3.02,7.62-8.04Zm-4.16,0c0,1.28-.42,5.12-3.64,5.12-3.14,0-3.62-3.72-3.62-5.12,0-1.34.46-5.1,3.62-5.1C3.04-13.14,3.46-9.32,3.46-8.04Zm5.6,3.12C9.3-.8,12.76.44,15.6.44c4.9,0,6.58-2.96,6.58-5.2,0-3.5-2.22-4.18-5.54-5.22-2.82-.88-3.08-1.2-3.08-1.88,0-1.14,1.26-1.28,1.96-1.28,1.14,0,2.02.34,2.14,1.66h4.1a5.207,5.207,0,0,0-2.26-3.98,7.451,7.451,0,0,0-3.96-1.06c-3.96,0-6.16,2.28-6.16,4.84,0,3.32,2,4.24,5.58,5.22C17.6-5.74,18-5.2,18-4.4c0,1.02-.64,1.48-2.3,1.48-1.6,0-2.38-.54-2.54-2ZM28.16-3.2V-6.66h7.6V-9.74h-7.6v-3.14H36.9v-3.2H24.16V0h13V-3.2Z" transform="translate(505.843 135.056)"/>
    <path id="btn_close-2" data-name="btn_close" d="M487.51,106.378a46.149,46.149,0,0,1-24.52-24.436,45.392,45.392,0,0,1-3.467-14.086h8.429a37.7,37.7,0,0,0,74.992,0h8.43a45.7,45.7,0,0,1-13.341,28.682,46.247,46.247,0,0,1-50.524,9.84ZM505.449,70,487.2,88.248l-5.935-5.937,18.247-18.247L481.266,45.817,487.2,39.88l18.248,18.248L523.7,39.88l5.935,5.937L511.385,64.064,529.633,82.31,523.7,88.248Zm37.5-9.728a37.7,37.7,0,0,0-74.992,0h-8.429a45.7,45.7,0,0,1,13.341-28.682,46.149,46.149,0,0,1,75.044,14.6,45.379,45.379,0,0,1,3.467,14.085Z"/>
  </g>
</svg>
