<svg xmlns="http://www.w3.org/2000/svg" width="26" height="20.03" viewBox="0 0 26 20.03">
  <path id="吹き出し" d="M26.831,41.972A.828.828,0,0,1,26,41.119V38s-1,0-1.783.036C22.416,38.008,21,35.854,21,33.475v-7.23A4,4,0,0,1,25,22H43a4,4,0,0,1,4,4.26v7.232C47,35.861,45.394,38,43,38H35l-7,4a.608.608,0,0,1-.241.029C27.444,42.029,26.939,41.972,26.831,41.972ZM23,26.589v6.567A3.132,3.132,0,0,0,26,36h1c.461,0,1,.173,1,.629v2.7L33,36a2.6,2.6,0,0,1,.5,0,2.779,2.779,0,0,0,.5,0h8a3.132,3.132,0,0,0,3-2.844V26.577A2.9,2.9,0,0,0,42,24H26A2.9,2.9,0,0,0,23,26.589ZM38.01,30.02a2.05,2.05,0,1,1,2.05,2.039A2.045,2.045,0,0,1,38.01,30.02Zm-6,0A2.05,2.05,0,1,1,34.06,32.06,2.045,2.045,0,0,1,32.01,30.02Zm-6.01,0a2.05,2.05,0,1,1,2.05,2.039A2.045,2.045,0,0,1,26,30.02Z" transform="translate(-21 -22)" fill="#c840b6"/>
</svg>
