<svg xmlns="http://www.w3.org/2000/svg" xmlns:xlink="http://www.w3.org/1999/xlink" width="256" height="30" viewBox="0 0 256 30">
  <defs>
    <linearGradient id="linear-gradient" y1="0.5" x2="1" y2="0.5" gradientUnits="objectBoundingBox">
      <stop offset="0" stop-color="#e363bd"/>
      <stop offset="1" stop-color="#a661e6"/>
    </linearGradient>
  </defs>
  <g id="btn_more" transform="translate(-88 -168)">
    <g id="長方形_1" data-name="長方形 1">
      <rect id="長方形_1-2" data-name="長方形 1" width="256" height="30" rx="15" transform="translate(88 168)" fill="#c840aa"/>
      <path id="Gradient_Overlay" data-name="Gradient Overlay" d="M103,168H329a15,15,0,0,1,0,30H103a15,15,0,0,1,0-30Z" opacity="0.9" fill="url(#linear-gradient)"/>
    </g>
    <path id="パス_2" data-name="パス 2" d="M-92.011-5.52l5.075-8.8H-91L-93.862-9.01l-2.849-5.306h-4.06l5.075,8.8V0h3.686Zm13.39-5.306c-2.92,0-5.7,1.656-5.7,5.609,0,3.935,2.778,5.609,5.7,5.609,2.9,0,5.68-1.674,5.68-5.609C-72.941-9.17-75.718-10.826-78.621-10.826Zm-2.386,5.609c0-1.335.5-3.08,2.386-3.08,1.905,0,2.368,1.852,2.368,2.991,0,.588-.071,3.152-2.368,3.152C-80.508-2.154-81.007-3.882-81.007-5.217ZM-59.248,0V-10.434h-3.169v6.107A2.08,2.08,0,0,1-64.59-2.154a1.913,1.913,0,0,1-2.1-2.119v-6.161h-3.187v6.748c0,2.368,1.175,4.077,3.953,4.077a4.009,4.009,0,0,0,3.508-1.62L-62.364,0Zm11.2-11.467h4.736v-2.849H-56.346v2.849h4.736V0h3.561ZM-29.8,0V-10.434h-3.169v6.107a2.08,2.08,0,0,1-2.172,2.172,1.913,1.913,0,0,1-2.1-2.119v-6.161h-3.187v6.748c0,2.368,1.175,4.077,3.953,4.077a4.009,4.009,0,0,0,3.508-1.62L-32.914,0Zm6.624-14.316h-3.187V0h2.849l.071-1.424A3.666,3.666,0,0,0-20.04.392c2.065,0,4.683-1.424,4.683-5.644,0-3.187-1.5-5.573-4.629-5.573a3.609,3.609,0,0,0-3.187,1.513ZM-20.913-8.3c1.389,0,2.244,1.318,2.244,3.009,0,2.226-1.122,3.134-2.244,3.134-1.407,0-2.244-1.318-2.244-3.009C-23.156-7.336-22.07-8.3-20.913-8.3ZM-1.291-4.523A7.375,7.375,0,0,0-1.985-8.1a5.419,5.419,0,0,0-4.986-2.724,5.367,5.367,0,0,0-5.7,5.609A5.367,5.367,0,0,0-6.953.392,5.987,5.987,0,0,0-2.787-1.1,4.941,4.941,0,0,0-1.522-3.116H-4.977A1.953,1.953,0,0,1-6.9-1.816c-2.119,0-2.333-1.976-2.422-2.706Zm-7.941-2.03a2.306,2.306,0,0,1,2.3-2.065c.712,0,1.852.285,2.208,2.065ZM22.355-9.134a5.751,5.751,0,0,0-6.072-5.573c-4.077,0-6.642,3.276-6.642,7.674,0,4.469,2.689,7.425,6.624,7.425a5.79,5.79,0,0,0,4.968-2.439,6.285,6.285,0,0,0,1.193-3.383H18.865c-.053.588-.249,2.831-2.6,2.831-2.724,0-2.9-3.312-2.9-4.327,0-1.923.356-4.772,2.885-4.772,1.193,0,2.244.623,2.546,2.564Zm3.6-5.181V0h3.187V-6.107A2.08,2.08,0,0,1,31.293-8.3a1.93,1.93,0,0,1,2.119,2.1V0h3.169V-7.033c0-2.315-1.282-3.793-3.935-3.793a3.915,3.915,0,0,0-3.508,1.6v-5.092ZM51.147,0V-.231a1.779,1.779,0,0,1-.5-1.1V-7.389c0-3.134-3.526-3.436-4.968-3.436-5.092,0-5.4,2.493-5.52,3.526h3.134c-.018-.427-.036-1.229,2.315-1.229.445,0,1.852,0,1.852,1.086,0,.837-.872.944-2.546,1.157-3.1.392-5.27.819-5.27,3.365,0,3.312,3.134,3.312,3.864,3.312a4.714,4.714,0,0,0,3.971-1.585A2.219,2.219,0,0,0,47.764,0ZM47.479-4.042c0,1.193-1.211,2.048-2.724,2.048-.445,0-1.8-.071-1.8-1.015,0-.926,1-1.1,2.511-1.335a6.893,6.893,0,0,0,2.012-.481Zm6.606-6.392V0h3.187V-6.107A2.079,2.079,0,0,1,59.426-8.3a1.936,1.936,0,0,1,2.119,2.137V0h3.169V-7.033c0-2.333-1.3-3.793-3.953-3.793a3.968,3.968,0,0,0-3.49,1.6L57.2-10.434Zm14.066,0V0h3.187V-6.107A2.079,2.079,0,0,1,73.493-8.3a1.936,1.936,0,0,1,2.119,2.137V0h3.169V-7.033c0-2.333-1.3-3.793-3.953-3.793a3.968,3.968,0,0,0-3.49,1.6l-.071-1.211Zm25.07,5.911A7.375,7.375,0,0,0,92.527-8.1a5.419,5.419,0,0,0-4.986-2.724,5.367,5.367,0,0,0-5.7,5.609A5.367,5.367,0,0,0,87.559.392a5.987,5.987,0,0,0,4.167-1.5A4.941,4.941,0,0,0,92.99-3.116H89.536a1.953,1.953,0,0,1-1.923,1.3c-2.119,0-2.333-1.976-2.422-2.706ZM85.28-6.552a2.306,2.306,0,0,1,2.3-2.065c.712,0,1.852.285,2.208,2.065ZM96.6-14.316V0h3.4V-14.316Z" transform="translate(211.294 190.118)" fill="#fff"/>
    <path id="パス_1" data-name="パス 1" d="M3.094-3.389-2.381-7.464V.687Z" transform="translate(327.595 186.408)" fill="#fff"/>
  </g>
</svg>
