<svg xmlns="http://www.w3.org/2000/svg" xmlns:xlink="http://www.w3.org/1999/xlink" width="189" height="30" viewBox="0 0 189 30">
  <defs>
    <linearGradient id="linear-gradient" y1="0.5" x2="1" y2="0.5" gradientUnits="objectBoundingBox">
      <stop offset="0" stop-color="#e363bd"/>
      <stop offset="1" stop-color="#a661e6"/>
    </linearGradient>
  </defs>
  <g id="btn_more" transform="translate(-616 -930)">
    <g id="長方形_1" data-name="長方形 1">
      <rect id="長方形_1-2" data-name="長方形 1" width="189" height="30" rx="15" transform="translate(616 930)" fill="#c840aa"/>
      <path id="Gradient_Overlay" data-name="Gradient Overlay" d="M631,930H790a15,15,0,0,1,0,30H631a15,15,0,0,1,0-30Z" opacity="0.9" fill="url(#linear-gradient)"/>
    </g>
    <path id="パス_13" data-name="パス 13" d="M-58.269-10.22-58.483,0h3.258V-14.316h-4.558L-62.364-4.131l-2.582-10.185h-4.54V0h3.258l-.214-10.22L-63.753,0h2.8ZM-37.4-7.158c0-4.469-2.991-7.55-6.944-7.55-3.917,0-6.944,3.045-6.944,7.55,0,4.523,3.027,7.55,6.944,7.55C-40.392.392-37.4-2.689-37.4-7.158Zm-3.7,0c0,1.14-.374,4.558-3.241,4.558-2.8,0-3.223-3.312-3.223-4.558,0-1.193.41-4.54,3.223-4.54C-41.478-11.7-41.1-8.3-41.1-7.158ZM-21.162-3.7A3.041,3.041,0,0,0-22.319-6.25a2.569,2.569,0,0,0-1.442-.463,3.63,3.63,0,0,0,1.816-1.14,4.131,4.131,0,0,0,.855-2.546c0-2.065-1.3-3.917-4.7-3.917H-33.5V0h3.579V-5.2h3.134a1.809,1.809,0,0,1,1.5.5,2.291,2.291,0,0,1,.57,1.567v1.442A3.319,3.319,0,0,0-24.385,0h3.721V-.285c-.5-.267-.5-1.14-.5-1.745Zm-8.76-7.763h3.6a1.574,1.574,0,0,1,1.531,1.692,1.606,1.606,0,0,1-1.567,1.727h-3.561Zm16.435,8.618v-3.08h6.766V-8.671h-6.766v-2.8h7.781v-2.849H-17.049V0H-5.475V-2.849ZM19.15,0V-14.316H15.589l.125,9.027L9.446-14.316H6.009V0H9.571L9.446-9.027,15.589,0Zm7.906-2.849v-3.08h6.766V-8.671H27.056v-2.8h7.781v-2.849H23.495V0H35.068V-2.849ZM48,0H52l3.063-14.316H51.521L49.829-4.024l-1.6-10.292h-3.49l-1.6,10.292L41.443-14.316H37.9L40.962,0h4.006l1.513-9.526ZM58.18-4.38C58.394-.712,61.474.392,64,.392c4.362,0,5.858-2.635,5.858-4.629,0-3.116-1.976-3.721-4.932-4.647-2.511-.783-2.742-1.068-2.742-1.674,0-1.015,1.122-1.14,1.745-1.14,1.015,0,1.8.3,1.905,1.478h3.65a4.635,4.635,0,0,0-2.012-3.543,6.634,6.634,0,0,0-3.526-.944c-3.526,0-5.484,2.03-5.484,4.309,0,2.956,1.781,3.775,4.968,4.647,2.35.641,2.706,1.122,2.706,1.834,0,.908-.57,1.318-2.048,1.318-1.424,0-2.119-.481-2.261-1.781Z" transform="translate(702.294 952.118)" fill="#fff"/>
    <path id="パス_14" data-name="パス 14" d="M3.094-3.389-2.381-7.464V.687Z" transform="translate(788.595 948.408)" fill="#fff"/>
  </g>
</svg>
